<?xml version="1.0" encoding="UTF-8"?>
<svg id="Layer_1" data-name="Layer 1" xmlns="http://www.w3.org/2000/svg" viewBox="0 0 500 500">
  <defs>
    <style>
      .cls-1 {
        fill: #5a6a91;
        stroke-width: 0px;
      }
    </style>
  </defs>
  <path class="cls-1" d="M468,0H32C14.33,0,0,14.33,0,32v436c0,17.67,14.33,32,32,32h436c17.67,0,32-14.33,32-32V32c0-17.67-14.33-32-32-32ZM106.81,428.92c0,4.42-3.58,8-8,8h-37.41c-4.42,0-8-3.58-8-8v-37.41c0-4.42,3.58-8,8-8h37.41c4.42,0,8,3.58,8,8v37.41ZM106.81,322.11c0,4.42-3.58,8-8,8h-37.41c-4.42,0-8-3.58-8-8v-37.41c0-4.42,3.58-8,8-8h37.41c4.42,0,8,3.58,8,8v37.41ZM106.81,215.3c0,4.42-3.58,8-8,8h-37.41c-4.42,0-8-3.58-8-8v-37.41c0-4.42,3.58-8,8-8h37.41c4.42,0,8,3.58,8,8v37.41ZM106.81,108.48c0,4.42-3.58,8-8,8h-37.41c-4.42,0-8-3.58-8-8v-37.41c0-4.42,3.58-8,8-8h37.41c4.42,0,8,3.58,8,8v37.41ZM446.59,428.92c0,4.42-3.58,8-8,8h-37.41c-4.42,0-8-3.58-8-8v-37.41c0-4.42,3.58-8,8-8h37.41c4.42,0,8,3.58,8,8v37.41ZM446.59,322.11c0,4.42-3.58,8-8,8h-37.41c-4.42,0-8-3.58-8-8v-37.41c0-4.42,3.58-8,8-8h37.41c4.42,0,8,3.58,8,8v37.41ZM446.59,215.3c0,4.42-3.58,8-8,8h-37.41c-4.42,0-8-3.58-8-8v-37.41c0-4.42,3.58-8,8-8h37.41c4.42,0,8,3.58,8,8v37.41ZM446.59,108.48c0,4.42-3.58,8-8,8h-37.41c-4.42,0-8-3.58-8-8v-37.41c0-4.42,3.58-8,8-8h37.41c4.42,0,8,3.58,8,8v37.41Z"/>
</svg>