<?xml version="1.0" standalone="no"?>
<!DOCTYPE svg PUBLIC "-//W3C//DTD SVG 20010904//EN"
 "http://www.w3.org/TR/2001/REC-SVG-20010904/DTD/svg10.dtd">
<svg version="1.0" xmlns="http://www.w3.org/2000/svg"
 width="500.000000pt" height="500.000000pt" viewBox="0 0 500.000000 500.000000"
 preserveAspectRatio="xMidYMid meet">
<metadata>
Created by potrace 1.14, written by Peter Selinger 2001-2017
</metadata>
<g transform="translate(0.000000,500.000000) scale(0.100000,-0.100000)"
fill="#000000" stroke="none">
<path d="M530 4220 c-19 -5 -48 -11 -65 -14 -50 -11 -167 -72 -227 -120 -73
-58 -125 -124 -171 -217 -70 -140 -67 -71 -65 -1541 l3 -1323 24 -49 c31 -61
89 -119 155 -154 l51 -27 2100 -2 c2341 -3 2157 -8 2312 68 156 77 272 216
329 394 18 58 19 107 19 1410 l0 1350 -28 54 c-36 67 -81 112 -148 148 l-54
28 -313 3 c-173 2 -312 -1 -309 -5 2 -4 51 -84 107 -178 57 -93 110 -182 119
-197 9 -15 65 -107 124 -205 59 -98 113 -187 120 -198 7 -11 24 -39 40 -62 15
-23 24 -44 20 -46 -5 -2 -188 -4 -407 -3 l-400 1 -143 235 c-79 129 -147 242
-151 250 -4 9 -61 104 -127 213 l-120 197 -277 0 c-153 0 -278 -2 -278 -5 0
-2 19 -35 42 -72 85 -139 441 -729 460 -763 11 -19 24 -40 29 -46 7 -8 -99
-11 -398 -10 l-407 1 -79 125 c-43 69 -81 132 -85 140 -4 8 -33 58 -65 110
-32 52 -62 102 -67 110 -5 8 -35 58 -67 110 -32 52 -85 141 -118 197 l-60 103
-282 0 -283 0 42 -67 c23 -38 46 -77 52 -88 9 -16 83 -138 136 -225 41 -67
192 -316 218 -360 42 -71 53 -89 75 -122 9 -14 17 -28 17 -31 0 -2 -183 -3
-406 -3 l-406 1 -160 265 c-88 146 -183 303 -212 350 -70 116 -66 110 -109
181 -40 68 -62 100 -68 98 -2 -1 -20 -5 -39 -9z"/>
</g>
</svg>
